<svg width="113" height="114" viewBox="0 0 113 114" fill="none" xmlns="http://www.w3.org/2000/svg">
<path d="M106.177 16.68C96.9167 11.15 81.6467 24.47 77.7667 28.1C78.5494 25.7979 79.9053 23.733 81.7067 22.1C81.749 22.0669 81.7827 22.0243 81.8053 21.9756C81.8279 21.9269 81.8387 21.8736 81.8367 21.82C81.8369 21.7684 81.8241 21.7176 81.7997 21.6722C81.7752 21.6268 81.7398 21.5883 81.6967 21.56C80.839 20.9802 79.8319 20.6607 78.7967 20.64C79.3294 19.9837 80.0138 19.4669 80.7908 19.1342C81.5679 18.8014 82.4141 18.6627 83.2567 18.73C83.3189 18.7392 83.3824 18.7299 83.4393 18.7032C83.4962 18.6765 83.544 18.6337 83.5767 18.58C83.6083 18.5253 83.625 18.4632 83.625 18.4C83.625 18.3368 83.6083 18.2747 83.5767 18.22C83.168 17.6016 82.6032 17.1021 81.9394 16.7719C81.2757 16.4418 80.5365 16.2928 79.7967 16.34C81.1067 15.34 84.0767 14.98 85.2767 14.94C85.3408 14.9394 85.4032 14.9201 85.4565 14.8846C85.5097 14.8491 85.5515 14.7988 85.5767 14.74C85.6013 14.6827 85.6096 14.6197 85.6008 14.558C85.592 14.4963 85.5664 14.4381 85.5267 14.39C84.3687 13.0431 82.727 12.2061 80.9567 12.06C82.6167 10.06 87.5367 9.45998 87.5867 9.44998C87.6569 9.44459 87.7234 9.41621 87.7759 9.3692C87.8283 9.3222 87.8638 9.25921 87.8767 9.19C87.8932 9.15127 87.9019 9.10965 87.9022 9.06757C87.9026 9.02548 87.8947 8.98375 87.8789 8.94473C87.8631 8.90572 87.8398 8.87019 87.8102 8.84021C87.7807 8.81023 87.7455 8.78636 87.7067 8.76999C86.146 7.77614 84.3766 7.15667 82.5367 6.95999C84.5367 4.47999 90.8967 2.95999 90.9667 2.95999C91.0346 2.94411 91.0959 2.90776 91.1424 2.8559C91.1889 2.80403 91.2183 2.73913 91.2267 2.66998C91.2346 2.60176 91.2216 2.53277 91.1895 2.47208C91.1573 2.41139 91.1076 2.36185 91.0467 2.32999C86.7867 0.109987 81.5868 2.26999 81.3467 2.32999C75.3467 5.32999 75.0767 15.28 75.7067 22.17C73.3467 13.8 68.2167 0.69 59.1467 0C58.8467 0 51.7767 -2.3365e-05 47.8967 4.56998C47.8576 4.62559 47.8366 4.69196 47.8366 4.75998C47.8366 4.828 47.8576 4.89436 47.8967 4.94998C47.9317 5.00977 47.9836 5.05784 48.0459 5.0881C48.1082 5.11837 48.1781 5.12947 48.2467 5.12C48.3367 5.12 56.7867 3.74998 60.2467 5.84998C58.136 6.9444 56.3211 8.53285 54.9567 10.48C54.9159 10.5387 54.894 10.6085 54.894 10.68C54.894 10.7515 54.9159 10.8213 54.9567 10.88C54.9974 10.9372 55.0549 10.9804 55.1211 11.0037C55.1874 11.027 55.2592 11.0292 55.3267 11.01C55.3967 11.01 61.6667 9.25999 64.5467 10.96C63.5327 11.4515 62.6273 12.1409 61.8837 12.9875C61.1401 13.8342 60.5733 14.821 60.2167 15.89C60.1961 15.9508 60.1936 16.0162 60.2096 16.0784C60.2256 16.1406 60.2593 16.1967 60.3067 16.24C60.3515 16.2851 60.4087 16.3158 60.4711 16.3283C60.5334 16.3408 60.5981 16.3344 60.6567 16.31C62.1467 15.76 66.0267 14.67 68.0267 15.41C67.1059 15.6779 66.2757 16.192 65.6255 16.8968C64.9752 17.6017 64.5297 18.4706 64.3367 19.41C64.327 19.4726 64.335 19.5366 64.3597 19.5949C64.3845 19.6532 64.425 19.7035 64.4767 19.74C64.5315 19.7716 64.5936 19.7882 64.6567 19.7882C64.7199 19.7882 64.782 19.7716 64.8367 19.74C65.8259 19.2307 66.9278 18.9801 68.0399 19.0116C69.152 19.0431 70.238 19.3556 71.1967 19.92C69.9482 20.4256 68.8791 21.2927 68.1267 22.41C68.1022 22.4562 68.0894 22.5077 68.0894 22.56C68.0894 22.6123 68.1022 22.6638 68.1267 22.71C68.1453 22.7593 68.1747 22.8038 68.2127 22.8401C68.2508 22.8765 68.2966 22.9038 68.3468 22.92C71.2901 23.9759 73.9089 25.7781 75.9467 28.15C71.0067 26.24 54.2467 20.49 48.3667 28.15C48.2267 28.36 44.9167 33.35 46.3667 38.24C46.3867 38.3056 46.426 38.3636 46.4796 38.4064C46.5331 38.4493 46.5984 38.4749 46.6668 38.48H46.7167C46.7767 38.4736 46.8339 38.4518 46.883 38.4168C46.9321 38.3817 46.9712 38.3346 46.9967 38.28C46.9967 38.21 49.9167 31.77 52.9367 30.28C52.7566 32.2525 53.0444 34.2396 53.7767 36.08C53.8 36.1458 53.8435 36.2025 53.9009 36.242C53.9584 36.2816 54.027 36.3019 54.0967 36.3C54.1686 36.2989 54.2383 36.2751 54.2958 36.232C54.3532 36.1889 54.3956 36.1287 54.4167 36.06C54.4167 36.01 56.0667 30.93 58.5267 29.62C58.4172 30.5555 58.4933 31.5034 58.7507 32.4094C59.0081 33.3155 59.4417 34.1618 60.0267 34.9C60.0669 34.949 60.1203 34.9855 60.1806 35.005C60.2408 35.0245 60.3055 35.0262 60.3667 35.01C60.4284 34.9975 60.4849 34.9671 60.5294 34.9226C60.5739 34.8782 60.6042 34.8216 60.6167 34.76C60.9067 33.5 61.8767 30.4 63.2467 29.26C63.0377 30.0276 63.0369 30.837 63.2442 31.605C63.4516 32.373 63.8598 33.0719 64.4267 33.63C64.4734 33.672 64.5306 33.7006 64.5921 33.713C64.6537 33.7253 64.7175 33.7208 64.7767 33.7C64.8365 33.6765 64.8886 33.637 64.9274 33.5858C64.9662 33.5347 64.9902 33.4739 64.9967 33.41C65.1021 32.5062 65.4257 31.6416 65.9396 30.8907C66.4535 30.1399 67.1423 29.5253 67.9467 29.1C67.7476 30.192 67.8727 31.3184 68.3067 32.34C68.3268 32.388 68.3582 32.4303 68.3982 32.4634C68.4383 32.4965 68.4858 32.5194 68.5367 32.53C68.5872 32.5411 68.6396 32.5406 68.6898 32.5285C68.7401 32.5164 68.7869 32.4929 68.8267 32.46C69.6169 31.8403 70.48 31.3197 71.3967 30.91C70.9963 31.2794 70.6855 31.7354 70.4879 32.2432C70.2903 32.7509 70.2113 33.2971 70.2567 33.84C70.3382 34.7932 70.7947 35.6752 71.5259 36.2921C72.2572 36.9089 73.2034 37.2103 74.1567 37.13C74.9405 37.0612 75.6791 36.7341 76.2567 36.2C77.1067 38.42 80.3567 49.06 74.8567 70.2C67.4367 72.43 66.2567 74.77 65.2267 76.84C64.8927 77.5921 64.4478 78.2899 63.9067 78.91C63.384 79.649 63.0747 80.5177 63.013 81.4209C62.9513 82.324 63.1394 83.2267 63.5567 84.03C64.9267 86.89 69.4367 90.03 83.0967 88.88C92.4967 88.08 98.2867 85.88 100.307 82.34C100.717 81.6619 100.963 80.8975 101.025 80.1076C101.088 79.3177 100.965 78.5241 100.667 77.79C98.6667 73.01 93.5467 69.14 88.6667 68.67C87.8867 60.96 85.4967 42.89 79.8367 35.67C80.0761 35.695 80.3174 35.695 80.5567 35.67C81.5108 35.5861 82.3928 35.1274 83.0094 34.3946C83.6261 33.6617 83.9272 32.7144 83.8467 31.76C83.7846 31.0427 83.5081 30.3607 83.0534 29.8026C82.5987 29.2444 81.9866 28.8358 81.2967 28.63C83.2231 28.4626 85.1638 28.6422 87.0267 29.16C87.0719 29.1821 87.1215 29.1935 87.1717 29.1935C87.222 29.1935 87.2716 29.1821 87.3167 29.16C87.3611 29.1322 87.398 29.094 87.4241 29.0487C87.4503 29.0033 87.4649 28.9523 87.4667 28.9C87.4919 27.6563 87.1436 26.4337 86.4667 25.39C87.4829 25.4859 88.4592 25.8332 89.3076 26.4005C90.1561 26.9679 90.85 27.7375 91.3267 28.64C91.3544 28.6962 91.397 28.7437 91.45 28.7773C91.5029 28.8108 91.5641 28.829 91.6267 28.83C91.6894 28.829 91.7506 28.8108 91.8035 28.7773C91.8564 28.7437 91.8991 28.6962 91.9267 28.64C92.2897 27.8305 92.4256 26.9376 92.3199 26.0568C92.2142 25.176 91.8709 24.3406 91.3267 23.64C93.2067 24.19 95.5267 27.04 96.3267 28.24C96.3611 28.2896 96.4077 28.3295 96.462 28.3557C96.5163 28.382 96.5765 28.3938 96.6367 28.39C96.7002 28.3806 96.7595 28.3528 96.8075 28.3102C96.8555 28.2676 96.8899 28.2119 96.9067 28.15C97.203 27.1583 97.3008 26.1178 97.1944 25.0882C97.088 24.0587 96.7795 23.0602 96.2867 22.15C99.3567 22.45 103.137 27.06 103.177 27.15C103.222 27.2045 103.282 27.2442 103.35 27.2638C103.418 27.2835 103.49 27.2821 103.557 27.26C103.625 27.2377 103.684 27.1931 103.724 27.1332C103.764 27.0733 103.783 27.0017 103.777 26.93C103.785 24.7374 103.271 22.5743 102.277 20.62C105.987 20.9 111.617 26.4 111.677 26.46C111.726 26.5085 111.789 26.5403 111.857 26.5511C111.925 26.5618 111.995 26.551 112.057 26.52C112.119 26.4914 112.17 26.4443 112.204 26.3852C112.238 26.3261 112.253 26.2579 112.247 26.19C111.817 20.62 106.427 16.85 106.177 16.68ZM88.2867 72.29C88.1559 73.3407 87.7251 74.3314 87.0458 75.1437C86.3666 75.9559 85.4677 76.5553 84.4567 76.87C81.6167 77.87 77.6067 77.21 75.7067 75.43C75.3197 75.1157 75.0304 74.6976 74.8728 74.2246C74.7151 73.7517 74.6957 73.2436 74.8167 72.76L75.0567 71.88C77.5163 72.7941 80.1359 73.1989 82.7567 73.07C84.798 72.9877 86.7289 72.1208 88.1467 70.65C88.2367 71.56 88.2767 72.14 88.2867 72.29ZM88.0567 69.69C84.6267 74.3 76.7967 71.79 75.2267 71.22C75.6867 69.52 76.0901 67.8866 76.4367 66.32C78.204 67.411 80.2791 67.8956 82.3467 67.7C84.2208 67.5011 86.0293 66.8972 87.6467 65.93C87.8167 67.39 87.9567 68.67 88.0567 69.69ZM87.5567 65.2C81.5567 68.8 77.4367 66.2 76.5567 65.61C76.8967 64.04 77.1767 62.54 77.4267 61.11C79.039 61.6306 80.7375 61.831 82.4267 61.7C83.9714 61.5775 85.4702 61.1166 86.8167 60.35C87.1467 62.08 87.3667 63.77 87.5567 65.2ZM77.5567 60.43C77.8067 58.93 78.0067 57.49 78.1567 56.14C79.4799 56.624 80.8931 56.8117 82.2967 56.69C83.6082 56.5788 84.8803 56.1866 86.0267 55.54C86.2967 56.93 86.5267 58.3 86.7367 59.63C85.3496 60.3932 83.8184 60.8586 82.2411 60.9963C80.6639 61.1341 79.0752 60.9412 77.5767 60.43H77.5567ZM78.2267 55.43C78.3567 54.15 78.4567 52.93 78.5167 51.78C79.6465 52.1552 80.8404 52.298 82.0267 52.2C83.1249 52.1022 84.1874 51.7605 85.1367 51.2C85.4067 52.39 85.6667 53.6 85.8967 54.79C84.7499 55.4597 83.4683 55.8656 82.1451 55.978C80.8218 56.0904 79.4901 55.9067 78.2467 55.44L78.2267 55.43ZM78.5567 51.07C78.5567 50 78.6167 48.99 78.6067 48.07C79.3454 48.2044 80.0985 48.2414 80.8467 48.18C82.0013 48.1021 83.1104 47.7 84.0467 47.02C84.3767 48.18 84.6867 49.37 84.9667 50.57C84.0024 51.1134 82.9313 51.4405 81.8279 51.5286C80.7245 51.6167 79.6151 51.4636 78.5767 51.08L78.5567 51.07ZM78.6067 47.34C78.6067 46.15 78.5267 45.06 78.4367 44.06C78.9744 44.1817 79.5277 44.2188 80.0767 44.17C81.0677 44.0806 82.0185 43.7361 82.8367 43.17C83.1867 44.17 83.5267 45.17 83.8367 46.26C83.0927 46.7956 82.2446 47.1694 81.3473 47.3571C80.4499 47.5449 79.5231 47.5424 78.6267 47.35L78.6067 47.34ZM78.3767 43.34C78.2901 42.5 78.1901 41.73 78.0767 41.03C78.3926 41.0609 78.7108 41.0609 79.0267 41.03C79.95 40.9656 80.8305 40.6162 81.5467 40.03C81.9167 40.82 82.2567 41.66 82.5967 42.53C82.006 42.9788 81.3202 43.2861 80.592 43.4283C79.8639 43.5704 79.1129 43.5436 78.3967 43.35L78.3767 43.34ZM77.9667 40.34C77.8167 39.54 77.6667 38.85 77.5167 38.26C77.7229 38.28 77.9305 38.28 78.1367 38.26C78.8915 38.2083 79.6019 37.885 80.1367 37.35C80.5541 37.9946 80.9347 38.6624 81.2767 39.35C80.8372 39.7508 80.3138 40.0486 79.7447 40.2216C79.1755 40.3946 78.575 40.4384 77.9867 40.35L77.9667 40.34ZM77.3167 37.54C77.1267 36.88 76.9567 36.39 76.8267 36.05H77.2567C77.7872 36.0013 78.2998 35.8338 78.7567 35.56C79.1133 35.9435 79.4472 36.3475 79.7567 36.77C79.4581 37.102 79.0769 37.3491 78.6518 37.4861C78.2268 37.6231 77.7731 37.6451 77.3367 37.55L77.3167 37.54ZM78.6267 34.85C78.2985 35.075 77.9287 35.2324 77.539 35.3131C77.1493 35.3938 76.7474 35.3961 76.3567 35.32C75.7378 35.1929 75.1765 34.8691 74.7566 34.397C74.3367 33.9248 74.0807 33.3295 74.0267 32.7C73.9923 32.3221 74.033 31.9412 74.1462 31.5791C74.2595 31.217 74.4432 30.8809 74.6867 30.59C74.9308 30.287 75.234 30.0367 75.5778 29.8545C75.9216 29.6723 76.2989 29.5619 76.6867 29.53H77.1167C77.4877 29.5487 77.8513 29.6404 78.1867 29.8C78.6509 30.0188 79.0494 30.3556 79.3425 30.7768C79.6356 31.198 79.8129 31.6887 79.8567 32.2C79.9075 32.7107 79.8223 33.2257 79.6098 33.6929C79.3973 34.1601 79.0651 34.5627 78.6467 34.86L78.6267 34.85ZM81.6267 3.01999C82.9096 2.52295 84.2562 2.20986 85.6267 2.09C87.0589 1.94115 88.5063 2.1084 89.8667 2.57999C87.7767 3.15999 82.8667 4.74 81.6267 7.16C81.5948 7.21095 81.5778 7.26985 81.5778 7.32999C81.5778 7.39012 81.5948 7.44905 81.6267 7.5C81.658 7.55031 81.7025 7.59095 81.7555 7.61743C81.8085 7.64391 81.8677 7.6552 81.9267 7.64999C83.526 7.68824 85.0915 8.1174 86.4867 8.89999C84.7067 9.22999 81.0567 10.13 79.9967 12.19C79.9678 12.2402 79.9525 12.2971 79.9525 12.355C79.9525 12.4129 79.9678 12.4698 79.9967 12.52C80.0275 12.5714 80.0717 12.6134 80.1245 12.6416C80.1774 12.6698 80.2369 12.6831 80.2967 12.68C81.8353 12.6871 83.3183 13.2561 84.4667 14.28C82.9467 14.41 79.5167 14.9 78.6367 16.57C78.603 16.624 78.5852 16.6864 78.5852 16.75C78.5852 16.8136 78.603 16.876 78.6367 16.93C78.6725 16.9847 78.7246 17.0268 78.7857 17.0501C78.8467 17.0735 78.9136 17.0769 78.9767 17.06C79.6007 16.9346 80.2456 16.96 80.8578 17.1339C81.47 17.3078 82.0319 17.6253 82.4967 18.06C81.5344 18.077 80.5926 18.3417 79.7623 18.8286C78.932 19.3156 78.2413 20.0083 77.7567 20.84C77.725 20.8929 77.7082 20.9533 77.7082 21.015C77.7082 21.0766 77.725 21.1371 77.7567 21.19C77.7912 21.2419 77.8393 21.2834 77.8957 21.3098C77.9521 21.3363 78.0148 21.3467 78.0767 21.34C79.0217 21.2747 79.9671 21.461 80.8167 21.88C79.1182 23.5227 77.8272 25.5397 77.0467 27.77C76.3367 22.97 74.1167 6.82 81.7067 3.03L81.6267 3.01999ZM68.8567 22.52C69.6655 21.56 70.7248 20.8434 71.9167 20.45C71.9767 20.4328 72.0309 20.3995 72.0732 20.3537C72.1156 20.3078 72.1445 20.2512 72.1567 20.19C72.1664 20.1284 72.1595 20.0653 72.1366 20.0073C72.1138 19.9493 72.0758 19.8984 72.0267 19.86C71.037 19.118 69.8715 18.6458 68.6444 18.4898C67.4172 18.3338 66.1707 18.4993 65.0267 18.97C65.8367 16.47 68.6867 15.97 68.8167 15.91C68.8807 15.9018 68.9407 15.8745 68.9888 15.8317C69.037 15.7889 69.0711 15.7325 69.0867 15.67C69.1015 15.6071 69.099 15.5415 69.0797 15.4799C69.0603 15.4183 69.0248 15.3631 68.9767 15.32C67.1167 13.76 62.6867 14.97 60.9767 15.52C61.8139 13.665 63.3266 12.1989 65.2067 11.42C65.2636 11.4007 65.3141 11.3664 65.3529 11.3206C65.3916 11.2747 65.4172 11.2192 65.4267 11.16C65.4369 11.1017 65.4322 11.0418 65.413 10.9858C65.3937 10.9298 65.3606 10.8797 65.3167 10.84C63.0367 8.89 58.0767 9.72 55.9767 10.19C57.2691 8.50248 58.9689 7.17083 60.9167 6.31998C60.973 6.29981 61.023 6.26516 61.0616 6.21951C61.1002 6.17386 61.1262 6.11885 61.1367 6.06C61.149 6.0017 61.1452 5.94117 61.1259 5.88483C61.1065 5.82849 61.0723 5.77843 61.0267 5.73999C58.3167 3.45999 51.5267 4.06997 49.0267 4.37997C52.8067 0.719974 59.0267 0.73999 59.0867 0.73999C70.0067 1.57999 75.1767 22.33 76.3567 27.86C74.3424 25.501 71.7812 23.6711 68.8967 22.53L68.8567 22.52ZM68.7067 31.77C68.4413 30.7876 68.4413 29.7524 68.7067 28.77C68.7253 28.7106 68.7267 28.6472 68.7108 28.587C68.6949 28.5268 68.6623 28.4724 68.6167 28.43C68.5732 28.3862 68.5183 28.3555 68.4582 28.3413C68.3981 28.3272 68.3352 28.3302 68.2767 28.35C67.3075 28.6954 66.4433 29.2843 65.7673 30.0602C65.0914 30.836 64.6263 31.7726 64.4167 32.78C64.0465 32.1973 63.8231 31.5336 63.7656 30.8456C63.7082 30.1577 63.8183 29.466 64.0867 28.83C64.1207 28.778 64.1388 28.7172 64.1388 28.655C64.1388 28.5928 64.1207 28.532 64.0867 28.48C64.0439 28.4319 63.9882 28.3969 63.9262 28.3792C63.8643 28.3615 63.7986 28.3618 63.7367 28.38C61.7967 28.95 60.5967 32.5 60.1667 34.03C59.3005 32.612 58.9939 30.9219 59.3067 29.29C59.3191 29.2325 59.3165 29.1729 59.2989 29.1168C59.2814 29.0607 59.2496 29.0102 59.2067 28.97C59.1655 28.926 59.1123 28.895 59.0537 28.8808C58.995 28.8666 58.9336 28.8698 58.8767 28.89C56.4967 29.58 54.8067 33.29 54.1267 35.06C53.5765 33.4188 53.4357 31.668 53.7167 29.96C53.7333 29.902 53.7337 29.8406 53.7178 29.7824C53.702 29.7242 53.6705 29.6715 53.6267 29.63C53.5842 29.588 53.5309 29.5584 53.4728 29.5443C53.4147 29.5302 53.3538 29.5322 53.2967 29.55C50.4867 30.39 47.8267 35.25 46.8167 37.28C46.0867 32.99 48.9067 28.73 48.9267 28.7C50.6267 26.5 53.3567 25.51 56.4767 25.24C63.5267 24.64 72.4767 27.76 75.7867 29.01C73.2402 29.3515 70.8125 30.2979 68.7067 31.77ZM74.5067 29.92L74.3367 30.08H74.0367L74.5067 29.92ZM70.8767 33.92C70.8439 33.5357 70.8872 33.1488 71.0042 32.7813C71.1212 32.4138 71.3096 32.073 71.5585 31.7785C71.8075 31.484 72.1122 31.2416 72.4551 31.0651C72.798 30.8886 73.1724 30.7815 73.5567 30.75H73.8567V30.8C73.8567 30.85 73.8067 30.91 73.7767 30.96C73.7084 31.0962 73.6482 31.2365 73.5968 31.38L73.5367 31.59C73.4963 31.7309 73.4662 31.8746 73.4467 32.02V32.21C73.4267 32.4262 73.4267 32.6438 73.4467 32.86C73.4621 33.0421 73.4922 33.2227 73.5367 33.4C73.5367 33.46 73.5367 33.52 73.5867 33.58L73.7067 33.92L73.7967 34.11C73.8441 34.2098 73.8975 34.3067 73.9567 34.4L74.0767 34.59C74.1344 34.6775 74.1979 34.761 74.2667 34.84L74.4167 35.01C74.4883 35.0916 74.5652 35.1684 74.6467 35.24L74.8167 35.38C74.9025 35.4522 74.9927 35.519 75.0867 35.58L75.2567 35.69C75.4009 35.7719 75.5514 35.8421 75.7067 35.9C75.2446 36.2925 74.671 36.5303 74.0667 36.58C73.6749 36.6169 73.2796 36.5748 72.9043 36.4561C72.529 36.3375 72.1814 36.1446 71.8821 35.8891C71.5827 35.6336 71.3377 35.3205 71.1615 34.9685C70.9854 34.6165 70.8818 34.2328 70.8567 33.84L70.8767 33.92ZM100.027 78.21C100.282 78.8583 100.383 79.5571 100.323 80.2512C100.262 80.9453 100.041 81.6159 99.6767 82.21C98.3667 84.49 94.4067 87.42 83.0067 88.4C69.0067 89.59 65.1767 86.11 64.1267 83.92C63.7748 83.2377 63.6115 82.4738 63.6537 81.7073C63.6959 80.9408 63.9421 80.1995 64.3667 79.56C64.9543 78.8919 65.4396 78.1404 65.8067 77.33C66.8067 75.33 67.8567 73.27 74.6167 71.16C74.4867 71.67 74.3467 72.16 74.2067 72.7C74.0417 73.3014 74.056 73.9379 74.2479 74.5313C74.4398 75.1247 74.8008 75.649 75.2867 76.04C76.2863 76.8369 77.4332 77.429 78.6618 77.7824C79.8903 78.1359 81.1765 78.2438 82.4467 78.1C83.2235 78.0338 83.9892 77.8727 84.7267 77.62C85.8595 77.2635 86.8657 76.5883 87.6247 75.6749C88.3837 74.7616 88.8635 73.6489 89.0067 72.47V72.4C89.0067 72.19 88.9167 71.15 88.7567 69.54C91.1941 69.9352 93.4962 70.9261 95.4587 72.4246C97.4212 73.923 98.9834 75.8828 100.007 78.13L100.027 78.21ZM83.1667 32.01C83.1996 32.3935 83.1567 32.7797 83.0403 33.1465C82.9239 33.5134 82.7364 33.8538 82.4885 34.1481C82.2405 34.4425 81.937 34.6852 81.5953 34.8622C81.2535 35.0393 80.8802 35.1473 80.4967 35.18C80.1613 35.2125 79.8228 35.1854 79.4967 35.1C79.5567 35.05 79.5967 34.99 79.6567 34.93L79.7367 34.84C79.8267 34.73 79.9167 34.61 79.9967 34.49C80.0667 34.38 80.1267 34.26 80.1867 34.15L80.2467 34.02C80.2467 33.93 80.3167 33.84 80.3467 33.74C80.3767 33.64 80.3467 33.64 80.3967 33.59C80.4259 33.4982 80.4493 33.4047 80.4667 33.31V33.16V32.86C80.4714 32.8134 80.4714 32.7666 80.4667 32.72C80.4767 32.5702 80.4767 32.4198 80.4667 32.27C80.4667 32.12 80.4667 31.98 80.3967 31.83C80.3267 31.68 80.3967 31.74 80.3967 31.69C80.3967 31.64 80.3467 31.5 80.3167 31.41L80.2567 31.25C80.2243 31.1649 80.1876 31.0814 80.1467 31C80.124 30.948 80.0973 30.8978 80.0667 30.85C80.0667 30.77 79.9767 30.69 79.9267 30.61L79.8367 30.48C79.7754 30.3867 79.7051 30.2996 79.6267 30.22L79.5667 30.14C79.4717 30.0383 79.3716 29.9415 79.2667 29.85L79.1467 29.76L78.9767 29.62C79.275 29.4895 79.5924 29.4084 79.9167 29.38C80.6822 29.2952 81.4503 29.5153 82.0548 29.9925C82.6592 30.4697 83.0515 31.1657 83.1467 31.93L83.1667 32.01ZM101.707 20.01C101.648 20.0154 101.591 20.0357 101.542 20.0689C101.493 20.1021 101.454 20.1472 101.427 20.2C101.398 20.252 101.383 20.3105 101.383 20.37C101.383 20.4295 101.398 20.488 101.427 20.54C102.427 22.2075 102.997 24.0975 103.087 26.04C101.717 24.54 98.4567 21.34 95.7167 21.58C95.6587 21.5841 95.6029 21.604 95.5553 21.6375C95.5078 21.671 95.4702 21.7168 95.4467 21.77C95.4178 21.822 95.4027 21.8805 95.4027 21.94C95.4027 21.9995 95.4178 22.058 95.4467 22.11C96.4285 23.6905 96.7851 25.5805 96.4467 27.41C95.4467 26.05 92.7267 22.82 90.4967 23.02C90.4318 23.0229 90.3692 23.0454 90.3174 23.0847C90.2656 23.1241 90.227 23.1782 90.2067 23.24C90.1821 23.2994 90.1766 23.365 90.1909 23.4277C90.2052 23.4904 90.2387 23.5472 90.2867 23.59C90.829 24.1446 91.226 24.8245 91.4423 25.5695C91.6586 26.3144 91.6876 27.1012 91.5267 27.86C90.9057 26.9115 90.0521 26.1378 89.0473 25.6127C88.0425 25.0875 86.92 24.8284 85.7867 24.86C85.7235 24.864 85.6626 24.8846 85.6099 24.9197C85.5572 24.9549 85.5147 25.0032 85.4867 25.06C85.4622 25.1173 85.4538 25.1803 85.4627 25.242C85.4715 25.3037 85.4971 25.3619 85.5367 25.41C86.2217 26.3319 86.6371 27.4258 86.7367 28.57C84.8747 28.1058 82.948 27.9571 81.0367 28.13C80.1107 28.2154 79.1917 28.3658 78.2867 28.58C82.2867 24.93 97.1367 12.15 105.777 17.32C105.827 17.32 110.517 20.63 111.447 25.39C109.707 23.69 104.937 19.68 101.707 19.96V20.01Z" fill="#E5E5E5"/>
<path d="M60.1767 40.68C50.9167 35.15 35.6467 48.47 31.7667 52.1C32.5494 49.7979 33.9053 47.733 35.7067 46.1C35.749 46.0669 35.7827 46.0243 35.8053 45.9756C35.8279 45.9269 35.8387 45.8736 35.8367 45.82C35.8369 45.7684 35.8241 45.7176 35.7997 45.6722C35.7752 45.6268 35.7398 45.5883 35.6967 45.56C34.839 44.9802 33.8319 44.6607 32.7967 44.64C33.3294 43.9837 34.0138 43.4669 34.7908 43.1342C35.5679 42.8014 36.4141 42.6627 37.2567 42.73C37.3189 42.7392 37.3824 42.7299 37.4393 42.7032C37.4962 42.6765 37.544 42.6337 37.5767 42.58C37.6083 42.5253 37.625 42.4632 37.625 42.4C37.625 42.3368 37.6083 42.2747 37.5767 42.22C37.168 41.6016 36.6032 41.1021 35.9394 40.7719C35.2757 40.4418 34.5365 40.2928 33.7967 40.34C35.1067 39.34 38.0767 38.98 39.2767 38.94C39.3408 38.9394 39.4032 38.9201 39.4565 38.8846C39.5097 38.8491 39.5515 38.7988 39.5767 38.74C39.6013 38.6827 39.6096 38.6197 39.6008 38.558C39.592 38.4963 39.5664 38.4381 39.5267 38.39C38.3687 37.0431 36.727 36.2061 34.9567 36.06C36.6167 34.06 41.5367 33.46 41.5867 33.45C41.6569 33.4446 41.7234 33.4162 41.7759 33.3692C41.8283 33.3222 41.8638 33.2592 41.8767 33.19C41.8932 33.1513 41.9019 33.1097 41.9022 33.0676C41.9026 33.0255 41.8947 32.9837 41.8789 32.9447C41.8631 32.9057 41.8398 32.8702 41.8102 32.8402C41.7807 32.8102 41.7455 32.7864 41.7067 32.77C40.146 31.7761 38.3766 31.1567 36.5367 30.96C38.5367 28.48 44.8967 26.96 44.9667 26.96C45.0346 26.9441 45.0959 26.9078 45.1424 26.8559C45.1889 26.804 45.2183 26.7391 45.2267 26.67C45.2346 26.6018 45.2216 26.5328 45.1895 26.4721C45.1573 26.4114 45.1076 26.3619 45.0467 26.33C40.7867 24.11 35.5868 26.27 35.3467 26.33C29.3467 29.33 29.0767 39.28 29.7067 46.17C27.3467 37.8 22.2167 24.69 13.1467 24C12.8467 24 5.77674 24 1.89674 28.57C1.85757 28.6256 1.83656 28.692 1.83656 28.76C1.83656 28.828 1.85757 28.8944 1.89674 28.95C1.93171 29.0098 1.9836 29.0578 2.04591 29.0881C2.10821 29.1184 2.1781 29.1295 2.24671 29.12C2.33671 29.12 10.7867 27.75 14.2467 29.85C12.136 30.9444 10.3211 32.5329 8.95673 34.48C8.91587 34.5387 8.89396 34.6085 8.89396 34.68C8.89396 34.7515 8.91587 34.8213 8.95673 34.88C8.99743 34.9372 9.05485 34.9804 9.1211 35.0037C9.18735 35.027 9.25918 35.0292 9.32673 35.01C9.39673 35.01 15.6667 33.26 18.5467 34.96C17.5327 35.4515 16.6273 36.1409 15.8837 36.9875C15.1401 37.8342 14.5733 38.821 14.2167 39.89C14.1961 39.9508 14.1936 40.0162 14.2096 40.0784C14.2256 40.1406 14.2593 40.1967 14.3067 40.24C14.3515 40.2851 14.4087 40.3158 14.4711 40.3283C14.5334 40.3408 14.5981 40.3344 14.6567 40.31C16.1467 39.76 20.0267 38.67 22.0267 39.41C21.1059 39.6779 20.2757 40.192 19.6255 40.8968C18.9752 41.6017 18.5297 42.4706 18.3367 43.41C18.327 43.4726 18.335 43.5366 18.3597 43.5949C18.3845 43.6532 18.425 43.7035 18.4767 43.74C18.5315 43.7716 18.5936 43.7882 18.6567 43.7882C18.7199 43.7882 18.782 43.7716 18.8367 43.74C19.8259 43.2307 20.9278 42.9801 22.0399 43.0116C23.152 43.0431 24.238 43.3556 25.1967 43.92C23.9482 44.4256 22.8791 45.2927 22.1267 46.41C22.1022 46.4562 22.0894 46.5077 22.0894 46.56C22.0894 46.6123 22.1022 46.6638 22.1267 46.71C22.1453 46.7593 22.1747 46.8038 22.2127 46.8401C22.2508 46.8765 22.2966 46.9038 22.3468 46.92C25.2901 47.9759 27.9089 49.7781 29.9467 52.15C25.0067 50.24 8.24671 44.49 2.36671 52.15C2.22671 52.36 -1.08329 57.35 0.366708 62.24C0.386684 62.3056 0.426024 62.3636 0.479562 62.4064C0.5331 62.4493 0.598384 62.4749 0.666757 62.48H0.716744C0.776689 62.4736 0.833948 62.4518 0.883004 62.4168C0.93206 62.3817 0.971217 62.3346 0.996713 62.28C0.996713 62.21 3.91675 55.77 6.93675 54.28C6.75661 56.2525 7.0444 58.2396 7.77674 60.08C7.79997 60.1458 7.84345 60.2025 7.90095 60.242C7.95844 60.2816 8.027 60.3019 8.09675 60.3C8.16861 60.2989 8.23826 60.2751 8.29575 60.232C8.35325 60.1889 8.3956 60.1287 8.41673 60.06C8.41673 60.01 10.0667 54.93 12.5267 53.62C12.4172 54.5555 12.4933 55.5034 12.7507 56.4094C13.0081 57.3155 13.4417 58.1618 14.0267 58.9C14.0669 58.949 14.1203 58.9855 14.1806 59.005C14.2408 59.0245 14.3055 59.0262 14.3667 59.01C14.4284 58.9975 14.4849 58.9671 14.5294 58.9226C14.5739 58.8782 14.6042 58.8216 14.6167 58.76C14.9067 57.5 15.8767 54.4 17.2467 53.26C17.0377 54.0276 17.0369 54.837 17.2442 55.605C17.4516 56.373 17.8598 57.0719 18.4267 57.63C18.4734 57.672 18.5306 57.7006 18.5921 57.713C18.6537 57.7253 18.7175 57.7208 18.7767 57.7C18.8365 57.6765 18.8886 57.637 18.9274 57.5858C18.9662 57.5347 18.9902 57.4739 18.9967 57.41C19.1021 56.5062 19.4257 55.6416 19.9396 54.8907C20.4535 54.1399 21.1423 53.5253 21.9467 53.1C21.7476 54.192 21.8727 55.3184 22.3067 56.34C22.3268 56.388 22.3582 56.4303 22.3982 56.4634C22.4383 56.4965 22.4858 56.5194 22.5367 56.53C22.5872 56.5411 22.6396 56.5406 22.6898 56.5285C22.7401 56.5164 22.7869 56.4929 22.8267 56.46C23.6169 55.8403 24.48 55.3197 25.3967 54.91C24.9963 55.2794 24.6855 55.7354 24.4879 56.2432C24.2903 56.7509 24.2113 57.2971 24.2567 57.84C24.3382 58.7932 24.7947 59.6752 25.5259 60.2921C26.2572 60.9089 27.2034 61.2103 28.1567 61.13C28.9405 61.0612 29.6791 60.7341 30.2567 60.2C31.1067 62.42 34.3567 73.06 28.8567 94.2C21.4367 96.43 20.2567 98.77 19.2267 100.84C18.8927 101.592 18.4478 102.29 17.9067 102.91C17.384 103.649 17.0747 104.518 17.013 105.421C16.9513 106.324 17.1394 107.227 17.5567 108.03C18.9267 110.89 23.4367 114.03 37.0967 112.88C46.4967 112.08 52.2867 109.88 54.3067 106.34C54.7168 105.662 54.9628 104.898 55.0253 104.108C55.0878 103.318 54.965 102.524 54.6667 101.79C52.6667 97.01 47.5467 93.14 42.6667 92.67C41.8867 84.96 39.4967 66.89 33.8367 59.67C34.0761 59.695 34.3174 59.695 34.5567 59.67C35.5108 59.5861 36.3928 59.1274 37.0094 58.3946C37.6261 57.6617 37.9272 56.7144 37.8467 55.76C37.7846 55.0427 37.5081 54.3607 37.0534 53.8026C36.5987 53.2444 35.9866 52.8358 35.2967 52.63C37.2231 52.4626 39.1638 52.6422 41.0267 53.16C41.0719 53.1821 41.1215 53.1935 41.1717 53.1935C41.222 53.1935 41.2716 53.1821 41.3167 53.16C41.3611 53.1322 41.398 53.094 41.4241 53.0487C41.4503 53.0033 41.4649 52.9523 41.4667 52.9C41.4919 51.6563 41.1436 50.4337 40.4667 49.39C41.4829 49.4859 42.4592 49.8332 43.3076 50.4005C44.1561 50.9679 44.85 51.7375 45.3267 52.64C45.3544 52.6962 45.397 52.7437 45.45 52.7773C45.5029 52.8108 45.5641 52.829 45.6267 52.83C45.6894 52.829 45.7506 52.8108 45.8035 52.7773C45.8564 52.7437 45.8991 52.6962 45.9267 52.64C46.2897 51.8305 46.4256 50.9376 46.3199 50.0568C46.2142 49.176 45.8709 48.3406 45.3267 47.64C47.2067 48.19 49.5267 51.04 50.3267 52.24C50.3611 52.2896 50.4077 52.3295 50.462 52.3557C50.5163 52.382 50.5765 52.3938 50.6367 52.39C50.7002 52.3806 50.7595 52.3528 50.8075 52.3102C50.8555 52.2676 50.8899 52.2119 50.9067 52.15C51.203 51.1583 51.3008 50.1178 51.1944 49.0882C51.088 48.0587 50.7795 47.0602 50.2867 46.15C53.3567 46.45 57.1367 51.06 57.1767 51.15C57.2216 51.2045 57.2819 51.2442 57.3497 51.2638C57.4175 51.2835 57.4897 51.2821 57.5567 51.26C57.6252 51.2377 57.6841 51.1931 57.724 51.1332C57.764 51.0733 57.7825 51.0017 57.7767 50.93C57.7851 48.7374 57.2709 46.5743 56.2767 44.62C59.9867 44.9 65.6167 50.4 65.6767 50.46C65.7258 50.5085 65.7889 50.5403 65.8571 50.5511C65.9253 50.5618 65.9951 50.551 66.0567 50.52C66.1186 50.4914 66.1701 50.4443 66.2041 50.3852C66.2382 50.3261 66.253 50.2579 66.2467 50.19C65.8167 44.62 60.4267 40.85 60.1767 40.68ZM42.2867 96.29C42.1559 97.3407 41.7251 98.3314 41.0458 99.1437C40.3666 99.9559 39.4677 100.555 38.4567 100.87C35.6167 101.87 31.6067 101.21 29.7067 99.43C29.3197 99.1157 29.0304 98.6976 28.8728 98.2246C28.7151 97.7517 28.6957 97.2436 28.8167 96.76L29.0567 95.88C31.5163 96.7941 34.1359 97.1989 36.7567 97.07C38.798 96.9877 40.7289 96.1208 42.1467 94.65C42.2367 95.56 42.2767 96.14 42.2867 96.29ZM42.0567 93.69C38.6267 98.3 30.7967 95.79 29.2267 95.22C29.6867 93.52 30.0901 91.8866 30.4367 90.32C32.204 91.411 34.2791 91.8956 36.3467 91.7C38.2208 91.5011 40.0293 90.8972 41.6467 89.93C41.8167 91.39 41.9567 92.67 42.0567 93.69ZM41.5567 89.2C35.5567 92.8 31.4367 90.2 30.5567 89.61C30.8967 88.04 31.1767 86.54 31.4267 85.11C33.039 85.6306 34.7375 85.831 36.4267 85.7C37.9714 85.5775 39.4702 85.1166 40.8167 84.35C41.1467 86.08 41.3667 87.77 41.5567 89.2ZM31.5567 84.43C31.8067 82.93 32.0067 81.49 32.1567 80.14C33.4799 80.624 34.8931 80.8117 36.2967 80.69C37.6082 80.5788 38.8803 80.1866 40.0267 79.54C40.2967 80.93 40.5267 82.3 40.7367 83.63C39.3496 84.3932 37.8184 84.8586 36.2411 84.9963C34.6639 85.1341 33.0752 84.9412 31.5767 84.43H31.5567ZM32.2267 79.43C32.3567 78.15 32.4567 76.93 32.5167 75.78C33.6465 76.1552 34.8404 76.298 36.0267 76.2C37.1249 76.1022 38.1874 75.7605 39.1367 75.2C39.4067 76.39 39.6667 77.6 39.8967 78.79C38.7499 79.4597 37.4683 79.8656 36.1451 79.978C34.8218 80.0904 33.4901 79.9067 32.2467 79.44L32.2267 79.43ZM32.5567 75.07C32.5567 74 32.6167 72.99 32.6067 72.07C33.3454 72.2044 34.0985 72.2414 34.8467 72.18C36.0013 72.1021 37.1104 71.7 38.0467 71.02C38.3767 72.18 38.6867 73.37 38.9667 74.57C38.0024 75.1134 36.9313 75.4405 35.8279 75.5286C34.7245 75.6167 33.6151 75.4636 32.5767 75.08L32.5567 75.07ZM32.6067 71.34C32.6067 70.15 32.5267 69.06 32.4367 68.06C32.9744 68.1817 33.5277 68.2188 34.0767 68.17C35.0677 68.0806 36.0185 67.7361 36.8367 67.17C37.1867 68.17 37.5267 69.17 37.8367 70.26C37.0927 70.7956 36.2446 71.1694 35.3473 71.3571C34.4499 71.5449 33.5231 71.5424 32.6267 71.35L32.6067 71.34ZM32.3767 67.34C32.2901 66.5 32.1901 65.73 32.0767 65.03C32.3926 65.0609 32.7108 65.0609 33.0267 65.03C33.95 64.9656 34.8305 64.6162 35.5467 64.03C35.9167 64.82 36.2567 65.66 36.5967 66.53C36.006 66.9788 35.3202 67.2861 34.592 67.4283C33.8639 67.5704 33.1129 67.5436 32.3967 67.35L32.3767 67.34ZM31.9667 64.34C31.8167 63.54 31.6667 62.85 31.5167 62.26C31.7229 62.28 31.9305 62.28 32.1367 62.26C32.8915 62.2083 33.6019 61.885 34.1367 61.35C34.5541 61.9946 34.9347 62.6624 35.2767 63.35C34.8372 63.7508 34.3138 64.0486 33.7447 64.2216C33.1755 64.3946 32.575 64.4384 31.9867 64.35L31.9667 64.34ZM31.3167 61.54C31.1267 60.88 30.9567 60.39 30.8267 60.05H31.2567C31.7872 60.0013 32.2998 59.8338 32.7567 59.56C33.1133 59.9435 33.4472 60.3475 33.7567 60.77C33.4581 61.102 33.0769 61.3491 32.6518 61.4861C32.2268 61.6231 31.7731 61.6451 31.3367 61.55L31.3167 61.54ZM32.6267 58.85C32.2985 59.075 31.9287 59.2324 31.539 59.3131C31.1493 59.3938 30.7474 59.3961 30.3567 59.32C29.7378 59.1929 29.1765 58.8691 28.7566 58.397C28.3367 57.9248 28.0807 57.3295 28.0267 56.7C27.9923 56.3221 28.033 55.9412 28.1462 55.5791C28.2595 55.217 28.4432 54.8809 28.6867 54.59C28.9308 54.287 29.234 54.0367 29.5778 53.8545C29.9216 53.6723 30.2989 53.5619 30.6867 53.53H31.1167C31.4877 53.5487 31.8513 53.6404 32.1867 53.8C32.6509 54.0188 33.0494 54.3556 33.3425 54.7768C33.6356 55.198 33.8129 55.6887 33.8567 56.2C33.9075 56.7107 33.8223 57.2257 33.6098 57.6929C33.3973 58.1601 33.0651 58.5627 32.6467 58.86L32.6267 58.85ZM35.6267 27.02C36.9096 26.523 38.2562 26.2099 39.6267 26.09C41.0589 25.9411 42.5063 26.1084 43.8667 26.58C41.7767 27.16 36.8667 28.74 35.6267 31.16C35.5948 31.211 35.5778 31.2699 35.5778 31.33C35.5778 31.3901 35.5948 31.4491 35.6267 31.5C35.658 31.5503 35.7025 31.5909 35.7555 31.6174C35.8085 31.6439 35.8677 31.6552 35.9267 31.65C37.526 31.6882 39.0915 32.1174 40.4867 32.9C38.7067 33.23 35.0567 34.13 33.9967 36.19C33.9678 36.2402 33.9525 36.2971 33.9525 36.355C33.9525 36.4129 33.9678 36.4698 33.9967 36.52C34.0275 36.5714 34.0717 36.6134 34.1245 36.6416C34.1774 36.6698 34.2369 36.6831 34.2967 36.68C35.8353 36.6871 37.3183 37.2561 38.4667 38.28C36.9467 38.41 33.5167 38.9 32.6367 40.57C32.603 40.624 32.5852 40.6864 32.5852 40.75C32.5852 40.8136 32.603 40.876 32.6367 40.93C32.6725 40.9847 32.7246 41.0268 32.7857 41.0501C32.8467 41.0735 32.9136 41.0769 32.9767 41.06C33.6007 40.9346 34.2456 40.96 34.8578 41.1339C35.47 41.3078 36.0319 41.6253 36.4967 42.06C35.5344 42.077 34.5926 42.3417 33.7623 42.8286C32.932 43.3156 32.2413 44.0083 31.7567 44.84C31.725 44.8929 31.7082 44.9533 31.7082 45.015C31.7082 45.0766 31.725 45.1371 31.7567 45.19C31.7912 45.2419 31.8393 45.2834 31.8957 45.3098C31.9521 45.3363 32.0148 45.3467 32.0767 45.34C33.0217 45.2747 33.9671 45.461 34.8167 45.88C33.1182 47.5227 31.8272 49.5397 31.0467 51.77C30.3367 46.97 28.1167 30.82 35.7067 27.03L35.6267 27.02ZM22.8567 46.52C23.6655 45.56 24.7248 44.8434 25.9167 44.45C25.9767 44.4328 26.0309 44.3995 26.0732 44.3537C26.1156 44.3078 26.1445 44.2512 26.1567 44.19C26.1664 44.1284 26.1595 44.0653 26.1366 44.0073C26.1138 43.9493 26.0758 43.8984 26.0267 43.86C25.037 43.118 23.8715 42.6458 22.6444 42.4898C21.4172 42.3338 20.1707 42.4993 19.0267 42.97C19.8367 40.47 22.6867 39.97 22.8167 39.91C22.8807 39.9018 22.9407 39.8745 22.9888 39.8317C23.037 39.7889 23.0711 39.7325 23.0867 39.67C23.1015 39.6071 23.099 39.5415 23.0797 39.4799C23.0603 39.4183 23.0248 39.3631 22.9767 39.32C21.1167 37.76 16.6867 38.97 14.9767 39.52C15.8139 37.665 17.3266 36.1989 19.2067 35.42C19.2636 35.4007 19.3141 35.3664 19.3529 35.3206C19.3916 35.2747 19.4172 35.2192 19.4267 35.16C19.4369 35.1017 19.4322 35.0418 19.413 34.9858C19.3937 34.9298 19.3606 34.8797 19.3167 34.84C17.0367 32.89 12.0767 33.72 9.97672 34.19C11.2691 32.5025 12.9689 31.1708 14.9167 30.32C14.973 30.2998 15.023 30.2652 15.0616 30.2195C15.1002 30.1739 15.1262 30.1189 15.1367 30.06C15.149 30.0017 15.1452 29.9412 15.1259 29.8848C15.1065 29.8285 15.0723 29.7784 15.0267 29.74C12.3167 27.46 5.52674 28.07 3.02674 28.38C6.80674 24.72 13.0267 24.74 13.0867 24.74C24.0067 25.58 29.1767 46.33 30.3567 51.86C28.3424 49.501 25.7812 47.6711 22.8967 46.53L22.8567 46.52ZM22.7067 55.77C22.4413 54.7876 22.4413 53.7524 22.7067 52.77C22.7253 52.7106 22.7267 52.6472 22.7108 52.587C22.6949 52.5268 22.6623 52.4724 22.6167 52.43C22.5732 52.3862 22.5183 52.3555 22.4582 52.3413C22.3981 52.3272 22.3352 52.3302 22.2767 52.35C21.3075 52.6954 20.4433 53.2843 19.7673 54.0602C19.0914 54.836 18.6263 55.7726 18.4167 56.78C18.0465 56.1973 17.8231 55.5336 17.7656 54.8456C17.7082 54.1577 17.8183 53.466 18.0867 52.83C18.1207 52.778 18.1388 52.7172 18.1388 52.655C18.1388 52.5928 18.1207 52.532 18.0867 52.48C18.0439 52.4319 17.9882 52.3969 17.9262 52.3792C17.8643 52.3615 17.7986 52.3618 17.7367 52.38C15.7967 52.95 14.5967 56.5 14.1667 58.03C13.3005 56.612 12.9939 54.9219 13.3067 53.29C13.3191 53.2325 13.3165 53.1729 13.2989 53.1168C13.2814 53.0607 13.2496 53.0102 13.2067 52.97C13.1655 52.926 13.1123 52.895 13.0537 52.8808C12.995 52.8666 12.9336 52.8698 12.8767 52.89C10.4967 53.58 8.80675 57.29 8.12675 59.06C7.5765 57.4188 7.43574 55.668 7.71674 53.96C7.73333 53.902 7.73371 53.8406 7.71784 53.7824C7.70198 53.7242 7.67047 53.6715 7.62675 53.63C7.58416 53.588 7.53094 53.5584 7.47282 53.5443C7.41469 53.5302 7.35382 53.5322 7.29673 53.55C4.48673 54.39 1.82672 59.25 0.81672 61.28C0.08672 56.99 2.90671 52.73 2.92671 52.7C4.62671 50.5 7.35672 49.51 10.4767 49.24C17.5267 48.64 26.4767 51.76 29.7867 53.01C27.2402 53.3515 24.8125 54.2979 22.7067 55.77ZM28.5067 53.92L28.3367 54.08H28.0367L28.5067 53.92ZM24.8767 57.92C24.8439 57.5357 24.8872 57.1488 25.0042 56.7813C25.1212 56.4138 25.3096 56.073 25.5585 55.7785C25.8075 55.484 26.1122 55.2416 26.4551 55.0651C26.798 54.8886 27.1724 54.7815 27.5567 54.75H27.8567V54.8C27.8567 54.85 27.8067 54.91 27.7767 54.96C27.7084 55.0962 27.6482 55.2365 27.5968 55.38L27.5367 55.59C27.4963 55.7309 27.4662 55.8746 27.4467 56.02V56.21C27.4267 56.4262 27.4267 56.6438 27.4467 56.86C27.4621 57.0421 27.4922 57.2227 27.5367 57.4C27.5367 57.46 27.5367 57.52 27.5867 57.58L27.7067 57.92L27.7967 58.11C27.8441 58.2098 27.8975 58.3067 27.9567 58.4L28.0767 58.59C28.1344 58.6775 28.1979 58.761 28.2667 58.84L28.4167 59.01C28.4883 59.0916 28.5652 59.1684 28.6467 59.24L28.8167 59.38C28.9025 59.4522 28.9927 59.519 29.0867 59.58L29.2567 59.69C29.4009 59.7719 29.5514 59.8421 29.7067 59.9C29.2446 60.2925 28.671 60.5303 28.0667 60.58C27.6749 60.6169 27.2796 60.5748 26.9043 60.4561C26.529 60.3375 26.1814 60.1446 25.8821 59.8891C25.5827 59.6336 25.3377 59.3205 25.1615 58.9685C24.9854 58.6165 24.8818 58.2328 24.8567 57.84L24.8767 57.92ZM54.0267 102.21C54.2821 102.858 54.3833 103.557 54.3226 104.251C54.2619 104.945 54.0408 105.616 53.6767 106.21C52.3667 108.49 48.4067 111.42 37.0067 112.4C23.0067 113.59 19.1767 110.11 18.1267 107.92C17.7748 107.238 17.6115 106.474 17.6537 105.707C17.6959 104.941 17.9421 104.2 18.3667 103.56C18.9543 102.892 19.4396 102.14 19.8067 101.33C20.8067 99.33 21.8567 97.27 28.6167 95.16C28.4867 95.67 28.3467 96.16 28.2067 96.7C28.0417 97.3014 28.056 97.9379 28.2479 98.5313C28.4398 99.1247 28.8008 99.649 29.2867 100.04C30.2863 100.837 31.4332 101.429 32.6618 101.782C33.8903 102.136 35.1765 102.244 36.4467 102.1C37.2235 102.034 37.9892 101.873 38.7267 101.62C39.8595 101.264 40.8657 100.588 41.6247 99.6749C42.3837 98.7616 42.8635 97.6489 43.0067 96.47V96.4C43.0067 96.19 42.9167 95.15 42.7567 93.54C45.1941 93.9352 47.4962 94.9261 49.4587 96.4246C51.4212 97.923 52.9834 99.8828 54.0067 102.13L54.0267 102.21ZM37.1667 56.01C37.1996 56.3935 37.1567 56.7797 37.0403 57.1465C36.9239 57.5134 36.7364 57.8538 36.4885 58.1481C36.2405 58.4425 35.937 58.6852 35.5953 58.8622C35.2535 59.0393 34.8802 59.1473 34.4967 59.18C34.1613 59.2125 33.8228 59.1854 33.4967 59.1C33.5567 59.05 33.5967 58.99 33.6567 58.93L33.7367 58.84C33.8267 58.73 33.9167 58.61 33.9967 58.49C34.0667 58.38 34.1267 58.26 34.1867 58.15L34.2467 58.02C34.2467 57.93 34.3167 57.84 34.3467 57.74C34.3767 57.64 34.3467 57.64 34.3967 57.59C34.4259 57.4982 34.4493 57.4047 34.4667 57.31V57.16V56.86C34.4714 56.8134 34.4714 56.7666 34.4667 56.72C34.4767 56.5702 34.4767 56.4198 34.4667 56.27C34.4667 56.12 34.4667 55.98 34.3967 55.83C34.3267 55.68 34.3967 55.74 34.3967 55.69C34.3967 55.64 34.3467 55.5 34.3167 55.41L34.2567 55.25C34.2243 55.1649 34.1876 55.0814 34.1467 55C34.124 54.948 34.0973 54.8978 34.0667 54.85C34.0667 54.77 33.9767 54.69 33.9267 54.61L33.8367 54.48C33.7754 54.3867 33.7051 54.2996 33.6267 54.22L33.5667 54.14C33.4717 54.0383 33.3716 53.9415 33.2667 53.85L33.1467 53.76L32.9767 53.62C33.275 53.4895 33.5924 53.4084 33.9167 53.38C34.6822 53.2952 35.4503 53.5153 36.0548 53.9925C36.6592 54.4697 37.0515 55.1657 37.1467 55.93L37.1667 56.01ZM55.7067 44.01C55.6478 44.0154 55.5912 44.0357 55.5422 44.0689C55.4933 44.1021 55.4535 44.1472 55.4267 44.2C55.3978 44.252 55.3827 44.3105 55.3827 44.37C55.3827 44.4295 55.3978 44.488 55.4267 44.54C56.427 46.2075 56.9974 48.0975 57.0867 50.04C55.7167 48.54 52.4567 45.34 49.7167 45.58C49.6587 45.5841 49.6029 45.604 49.5553 45.6375C49.5078 45.671 49.4702 45.7168 49.4467 45.77C49.4178 45.822 49.4027 45.8805 49.4027 45.94C49.4027 45.9995 49.4178 46.058 49.4467 46.11C50.4285 47.6905 50.7851 49.5805 50.4467 51.41C49.4467 50.05 46.7267 46.82 44.4967 47.02C44.4318 47.0229 44.3692 47.0454 44.3174 47.0847C44.2656 47.1241 44.227 47.1782 44.2067 47.24C44.1821 47.2994 44.1766 47.365 44.1909 47.4277C44.2052 47.4904 44.2387 47.5472 44.2867 47.59C44.829 48.1446 45.226 48.8245 45.4423 49.5695C45.6586 50.3144 45.6876 51.1012 45.5267 51.86C44.9057 50.9115 44.0521 50.1378 43.0473 49.6127C42.0425 49.0875 40.92 48.8284 39.7867 48.86C39.7235 48.864 39.6626 48.8846 39.6099 48.9197C39.5572 48.9549 39.5147 49.0032 39.4867 49.06C39.4622 49.1173 39.4538 49.1803 39.4627 49.242C39.4715 49.3037 39.4971 49.3619 39.5367 49.41C40.2217 50.3319 40.6371 51.4258 40.7367 52.57C38.8747 52.1058 36.948 51.9571 35.0367 52.13C34.1107 52.2154 33.1917 52.3658 32.2867 52.58C36.2867 48.93 51.1367 36.15 59.7767 41.32C59.8267 41.32 64.5167 44.63 65.4467 49.39C63.7067 47.69 58.9367 43.68 55.7067 43.96V44.01Z" fill="#E5E5E5"/>
</svg>
